<svg xmlns="http://www.w3.org/2000/svg" version="1.1" xmlns:xlink="http://www.w3.org/1999/xlink" xmlns:svgjs="http://svgjs.com/svgjs" width="3840" height="2160" preserveAspectRatio="none" viewBox="0 0 3840 2160"><g mask="url(&quot;#SvgjsMask1521&quot;)" fill="none"><rect width="3840" height="2160" x="0" y="0" fill="url(#SvgjsLinearGradient1522)"></rect><use xlink:href="#SvgjsSymbol1529" x="0" y="0"></use><use xlink:href="#SvgjsSymbol1529" x="0" y="720"></use><use xlink:href="#SvgjsSymbol1529" x="0" y="1440"></use><use xlink:href="#SvgjsSymbol1529" x="720" y="0"></use><use xlink:href="#SvgjsSymbol1529" x="720" y="720"></use><use xlink:href="#SvgjsSymbol1529" x="720" y="1440"></use><use xlink:href="#SvgjsSymbol1529" x="1440" y="0"></use><use xlink:href="#SvgjsSymbol1529" x="1440" y="720"></use><use xlink:href="#SvgjsSymbol1529" x="1440" y="1440"></use><use xlink:href="#SvgjsSymbol1529" x="2160" y="0"></use><use xlink:href="#SvgjsSymbol1529" x="2160" y="720"></use><use xlink:href="#SvgjsSymbol1529" x="2160" y="1440"></use><use xlink:href="#SvgjsSymbol1529" x="2880" y="0"></use><use xlink:href="#SvgjsSymbol1529" x="2880" y="720"></use><use xlink:href="#SvgjsSymbol1529" x="2880" y="1440"></use><use xlink:href="#SvgjsSymbol1529" x="3600" y="0"></use><use xlink:href="#SvgjsSymbol1529" x="3600" y="720"></use><use xlink:href="#SvgjsSymbol1529" x="3600" y="1440"></use></g><defs><mask id="SvgjsMask1521"><rect width="3840" height="2160" fill="#ffffff"></rect></mask><linearGradient x1="10.94%" y1="-19.44%" x2="89.06%" y2="119.44%" gradientUnits="userSpaceOnUse" id="SvgjsLinearGradient1522"><stop stop-color="#0e2a47" offset="0"></stop><stop stop-color="rgba(0, 0, 0, 1)" offset="1"></stop></linearGradient><path d="M-1 0 a1 1 0 1 0 2 0 a1 1 0 1 0 -2 0z" id="SvgjsPath1528"></path><path d="M-3 0 a3 3 0 1 0 6 0 a3 3 0 1 0 -6 0z" id="SvgjsPath1526"></path><path d="M-5 0 a5 5 0 1 0 10 0 a5 5 0 1 0 -10 0z" id="SvgjsPath1523"></path><path d="M2 -2 L-2 2z" id="SvgjsPath1524"></path><path d="M6 -6 L-6 6z" id="SvgjsPath1525"></path><path d="M30 -30 L-30 30z" id="SvgjsPath1527"></path></defs><symbol id="SvgjsSymbol1529"><use xlink:href="#SvgjsPath1523" x="30" y="30" stroke="#1c538e"></use><use xlink:href="#SvgjsPath1524" x="30" y="90" stroke="#1c538e"></use><use xlink:href="#SvgjsPath1523" x="30" y="150" stroke="#1c538e"></use><use xlink:href="#SvgjsPath1523" x="30" y="210" stroke="#1c538e"></use><use xlink:href="#SvgjsPath1525" x="30" y="270" stroke="#1c538e"></use><use xlink:href="#SvgjsPath1525" x="30" y="330" stroke="#1c538e"></use><use xlink:href="#SvgjsPath1524" x="30" y="390" stroke="#1c538e"></use><use xlink:href="#SvgjsPath1526" x="30" y="450" stroke="#1c538e"></use><use xlink:href="#SvgjsPath1524" x="30" y="510" stroke="#1c538e"></use><use xlink:href="#SvgjsPath1526" x="30" y="570" stroke="#1c538e"></use><use xlink:href="#SvgjsPath1525" x="30" y="630" stroke="#1c538e"></use><use xlink:href="#SvgjsPath1525" x="30" y="690" stroke="#1c538e"></use><use xlink:href="#SvgjsPath1525" x="90" y="30" stroke="#1c538e"></use><use xlink:href="#SvgjsPath1523" x="90" y="90" stroke="#1c538e"></use><use xlink:href="#SvgjsPath1524" x="90" y="150" stroke="#1c538e"></use><use xlink:href="#SvgjsPath1527" x="90" y="210" stroke="#1c538e" stroke-width="3"></use><use xlink:href="#SvgjsPath1526" x="90" y="270" stroke="#1c538e"></use><use xlink:href="#SvgjsPath1525" x="90" y="330" stroke="#1c538e"></use><use xlink:href="#SvgjsPath1524" x="90" y="390" stroke="#1c538e"></use><use xlink:href="#SvgjsPath1523" x="90" y="450" stroke="#1c538e"></use><use xlink:href="#SvgjsPath1525" x="90" y="510" stroke="#1c538e"></use><use xlink:href="#SvgjsPath1523" x="90" y="570" stroke="#1c538e"></use><use xlink:href="#SvgjsPath1528" x="90" y="630" stroke="#1c538e"></use><use xlink:href="#SvgjsPath1527" x="90" y="690" stroke="#1c538e" stroke-width="3"></use><use xlink:href="#SvgjsPath1523" x="150" y="30" stroke="#1c538e"></use><use xlink:href="#SvgjsPath1525" x="150" y="90" stroke="#1c538e"></use><use xlink:href="#SvgjsPath1523" x="150" y="150" stroke="#1c538e"></use><use xlink:href="#SvgjsPath1525" x="150" y="210" stroke="#1c538e"></use><use xlink:href="#SvgjsPath1528" x="150" y="270" stroke="#1c538e"></use><use xlink:href="#SvgjsPath1523" x="150" y="330" stroke="#1c538e"></use><use xlink:href="#SvgjsPath1526" x="150" y="390" stroke="#1c538e"></use><use xlink:href="#SvgjsPath1525" x="150" y="450" stroke="#1c538e"></use><use xlink:href="#SvgjsPath1528" x="150" y="510" stroke="#1c538e"></use><use xlink:href="#SvgjsPath1523" x="150" y="570" stroke="#1c538e"></use><use xlink:href="#SvgjsPath1525" x="150" y="630" stroke="#1c538e"></use><use xlink:href="#SvgjsPath1524" x="150" y="690" stroke="#1c538e"></use><use xlink:href="#SvgjsPath1523" x="210" y="30" stroke="#1c538e"></use><use xlink:href="#SvgjsPath1525" x="210" y="90" stroke="#1c538e"></use><use xlink:href="#SvgjsPath1527" x="210" y="150" stroke="#1c538e" stroke-width="3"></use><use xlink:href="#SvgjsPath1524" x="210" y="210" stroke="#1c538e"></use><use xlink:href="#SvgjsPath1523" x="210" y="270" stroke="#1c538e"></use><use xlink:href="#SvgjsPath1525" x="210" y="330" stroke="#1c538e"></use><use xlink:href="#SvgjsPath1523" x="210" y="390" stroke="#1c538e"></use><use xlink:href="#SvgjsPath1524" x="210" y="450" stroke="#1c538e"></use><use xlink:href="#SvgjsPath1525" x="210" y="510" stroke="#1c538e"></use><use xlink:href="#SvgjsPath1525" x="210" y="570" stroke="#1c538e"></use><use xlink:href="#SvgjsPath1525" x="210" y="630" stroke="#1c538e"></use><use xlink:href="#SvgjsPath1526" x="210" y="690" stroke="#1c538e"></use><use xlink:href="#SvgjsPath1525" x="270" y="30" stroke="#1c538e"></use><use xlink:href="#SvgjsPath1523" x="270" y="90" stroke="#1c538e"></use><use xlink:href="#SvgjsPath1528" x="270" y="150" stroke="#1c538e"></use><use xlink:href="#SvgjsPath1523" x="270" y="210" stroke="#1c538e"></use><use xlink:href="#SvgjsPath1523" x="270" y="270" stroke="#1c538e"></use><use xlink:href="#SvgjsPath1525" x="270" y="330" stroke="#1c538e"></use><use xlink:href="#SvgjsPath1524" x="270" y="390" stroke="#1c538e"></use><use xlink:href="#SvgjsPath1524" x="270" y="450" stroke="#1c538e"></use><use xlink:href="#SvgjsPath1526" x="270" y="510" stroke="#1c538e"></use><use xlink:href="#SvgjsPath1525" x="270" y="570" stroke="#1c538e"></use><use xlink:href="#SvgjsPath1525" x="270" y="630" stroke="#1c538e"></use><use xlink:href="#SvgjsPath1525" x="270" y="690" stroke="#1c538e"></use><use xlink:href="#SvgjsPath1525" x="330" y="30" stroke="#1c538e"></use><use xlink:href="#SvgjsPath1525" x="330" y="90" stroke="#1c538e"></use><use xlink:href="#SvgjsPath1523" x="330" y="150" stroke="#1c538e"></use><use xlink:href="#SvgjsPath1525" x="330" y="210" stroke="#1c538e"></use><use xlink:href="#SvgjsPath1523" x="330" y="270" stroke="#1c538e"></use><use xlink:href="#SvgjsPath1523" x="330" y="330" stroke="#1c538e"></use><use xlink:href="#SvgjsPath1524" x="330" y="390" stroke="#1c538e"></use><use xlink:href="#SvgjsPath1525" x="330" y="450" stroke="#1c538e"></use><use xlink:href="#SvgjsPath1525" x="330" y="510" stroke="#1c538e"></use><use xlink:href="#SvgjsPath1525" x="330" y="570" stroke="#1c538e"></use><use xlink:href="#SvgjsPath1526" x="330" y="630" stroke="#1c538e"></use><use xlink:href="#SvgjsPath1523" x="330" y="690" stroke="#1c538e"></use><use xlink:href="#SvgjsPath1524" x="390" y="30" stroke="#1c538e"></use><use xlink:href="#SvgjsPath1525" x="390" y="90" stroke="#1c538e"></use><use xlink:href="#SvgjsPath1525" x="390" y="150" stroke="#1c538e"></use><use xlink:href="#SvgjsPath1524" x="390" y="210" stroke="#1c538e"></use><use xlink:href="#SvgjsPath1528" x="390" y="270" stroke="#1c538e"></use><use xlink:href="#SvgjsPath1526" x="390" y="330" stroke="#1c538e"></use><use xlink:href="#SvgjsPath1525" x="390" y="390" stroke="#1c538e"></use><use xlink:href="#SvgjsPath1523" x="390" y="450" stroke="#1c538e"></use><use xlink:href="#SvgjsPath1526" x="390" y="510" stroke="#1c538e"></use><use xlink:href="#SvgjsPath1526" x="390" y="570" stroke="#1c538e"></use><use xlink:href="#SvgjsPath1525" x="390" y="630" stroke="#1c538e"></use><use xlink:href="#SvgjsPath1525" x="390" y="690" stroke="#1c538e"></use><use xlink:href="#SvgjsPath1528" x="450" y="30" stroke="#1c538e"></use><use xlink:href="#SvgjsPath1525" x="450" y="90" stroke="#1c538e"></use><use xlink:href="#SvgjsPath1524" x="450" y="150" stroke="#1c538e"></use><use xlink:href="#SvgjsPath1525" x="450" y="210" stroke="#1c538e"></use><use xlink:href="#SvgjsPath1524" x="450" y="270" stroke="#1c538e"></use><use xlink:href="#SvgjsPath1524" x="450" y="330" stroke="#1c538e"></use><use xlink:href="#SvgjsPath1525" x="450" y="390" stroke="#1c538e"></use><use xlink:href="#SvgjsPath1523" x="450" y="450" stroke="#1c538e"></use><use xlink:href="#SvgjsPath1524" x="450" y="510" stroke="#1c538e"></use><use xlink:href="#SvgjsPath1523" x="450" y="570" stroke="#1c538e"></use><use xlink:href="#SvgjsPath1523" x="450" y="630" stroke="#1c538e"></use><use xlink:href="#SvgjsPath1525" x="450" y="690" stroke="#1c538e"></use><use xlink:href="#SvgjsPath1525" x="510" y="30" stroke="#1c538e"></use><use xlink:href="#SvgjsPath1525" x="510" y="90" stroke="#1c538e"></use><use xlink:href="#SvgjsPath1525" x="510" y="150" stroke="#1c538e"></use><use xlink:href="#SvgjsPath1523" x="510" y="210" stroke="#1c538e"></use><use xlink:href="#SvgjsPath1525" x="510" y="270" stroke="#1c538e"></use><use xlink:href="#SvgjsPath1528" x="510" y="330" stroke="#1c538e"></use><use xlink:href="#SvgjsPath1527" x="510" y="390" stroke="#1c538e" stroke-width="3"></use><use xlink:href="#SvgjsPath1525" x="510" y="450" stroke="#1c538e"></use><use xlink:href="#SvgjsPath1524" x="510" y="510" stroke="#1c538e"></use><use xlink:href="#SvgjsPath1527" x="510" y="570" stroke="#1c538e" stroke-width="3"></use><use xlink:href="#SvgjsPath1527" x="510" y="630" stroke="#1c538e" stroke-width="3"></use><use xlink:href="#SvgjsPath1525" x="510" y="690" stroke="#1c538e"></use><use xlink:href="#SvgjsPath1525" x="570" y="30" stroke="#1c538e"></use><use xlink:href="#SvgjsPath1524" x="570" y="90" stroke="#1c538e"></use><use xlink:href="#SvgjsPath1525" x="570" y="150" stroke="#1c538e"></use><use xlink:href="#SvgjsPath1523" x="570" y="210" stroke="#1c538e"></use><use xlink:href="#SvgjsPath1524" x="570" y="270" stroke="#1c538e"></use><use xlink:href="#SvgjsPath1523" x="570" y="330" stroke="#1c538e"></use><use xlink:href="#SvgjsPath1525" x="570" y="390" stroke="#1c538e"></use><use xlink:href="#SvgjsPath1527" x="570" y="450" stroke="#1c538e" stroke-width="3"></use><use xlink:href="#SvgjsPath1525" x="570" y="510" stroke="#1c538e"></use><use xlink:href="#SvgjsPath1523" x="570" y="570" stroke="#1c538e"></use><use xlink:href="#SvgjsPath1525" x="570" y="630" stroke="#1c538e"></use><use xlink:href="#SvgjsPath1524" x="570" y="690" stroke="#1c538e"></use><use xlink:href="#SvgjsPath1523" x="630" y="30" stroke="#1c538e"></use><use xlink:href="#SvgjsPath1523" x="630" y="90" stroke="#1c538e"></use><use xlink:href="#SvgjsPath1523" x="630" y="150" stroke="#1c538e"></use><use xlink:href="#SvgjsPath1528" x="630" y="210" stroke="#1c538e"></use><use xlink:href="#SvgjsPath1525" x="630" y="270" stroke="#1c538e"></use><use xlink:href="#SvgjsPath1525" x="630" y="330" stroke="#1c538e"></use><use xlink:href="#SvgjsPath1525" x="630" y="390" stroke="#1c538e"></use><use xlink:href="#SvgjsPath1526" x="630" y="450" stroke="#1c538e"></use><use xlink:href="#SvgjsPath1527" x="630" y="510" stroke="#1c538e" stroke-width="3"></use><use xlink:href="#SvgjsPath1523" x="630" y="570" stroke="#1c538e"></use><use xlink:href="#SvgjsPath1523" x="630" y="630" stroke="#1c538e"></use><use xlink:href="#SvgjsPath1523" x="630" y="690" stroke="#1c538e"></use><use xlink:href="#SvgjsPath1524" x="690" y="30" stroke="#1c538e"></use><use xlink:href="#SvgjsPath1525" x="690" y="90" stroke="#1c538e"></use><use xlink:href="#SvgjsPath1523" x="690" y="150" stroke="#1c538e"></use><use xlink:href="#SvgjsPath1528" x="690" y="210" stroke="#1c538e"></use><use xlink:href="#SvgjsPath1525" x="690" y="270" stroke="#1c538e"></use><use xlink:href="#SvgjsPath1525" x="690" y="330" stroke="#1c538e"></use><use xlink:href="#SvgjsPath1523" x="690" y="390" stroke="#1c538e"></use><use xlink:href="#SvgjsPath1528" x="690" y="450" stroke="#1c538e"></use><use xlink:href="#SvgjsPath1524" x="690" y="510" stroke="#1c538e"></use><use xlink:href="#SvgjsPath1526" x="690" y="570" stroke="#1c538e"></use><use xlink:href="#SvgjsPath1524" x="690" y="630" stroke="#1c538e"></use><use xlink:href="#SvgjsPath1524" x="690" y="690" stroke="#1c538e"></use></symbol></svg>